<svg xmlns="http://www.w3.org/2000/svg" viewBox="0 0 512 512" width="100%" height="100%">
    <!-- Fondo Cuadrado con Bordes Redondeados -->
    <rect width="512" height="512" rx="115" fill="#1A73E8" />
    
    <!-- Símbolo del Corazón con Pulso en Blanco -->
    <g transform="translate(106, 116) scale(12.5)" fill="none" stroke="#FFFFFF" stroke-width="2" stroke-linecap="round" stroke-linejoin="round">
        <!-- Contorno del Corazón -->
        <path d="M19 14c1.49-1.46 3-3.21 3-5.5A5.5 5.5 0 0 0 16.5 3c-1.76 0-3 .5-4.5 2-1.5-1.5-2.74-2-4.5-2A5.5 5.5 0 0 0 2 8.5c0 2.3 1.5 4.05 3 5.5l7 7Z" />
        <!-- Línea de Pulso (ECG) -->
        <path d="M2 10h4l2.5-4 3.5 9 3-7 2 2h5" />
    </g>
</svg>
